:FULLY-SPECIFIED
:FORCE-ALL-JOINTS-BE-3DOF
:DEGREES
374
root 6.19332 16.5077 -15.8861 9.31563 -17.0762 -6.10735
lfemur -44.9873 22.5199 -12.8506
ltibia 67.582 -0 0
lfoot -10.4818 -1.39403 0.0354991
ltoes 13.781 -0 0
rfemur -24.4594 -3.56931 31.1825
rtibia 41.6957 -0 0
rfoot -21.3918 0.617724 -4.31705e-06
rtoes 17.6776 -0 0
lowerback 5.21056 1.5841 3.38977
upperback 2.63098 2.25575 1.02282
thorax -0.115942 1.14598 -0.962451
lowerneck -7.84893 -1.28382 2.93083
upperneck -0.654063 -2.02329 2.17222
head 1.10101 -0.975518 0.116925
lclavicle 0 0 0
lhumerus -40.3497 -22.9981 94.9527
lradius 56.5249 -0 0
lwrist 19.3426 0 0
lhand -21.2774 2.91617 0.00289498
lfingers 0 -0 0
lthumb 5.10648 32.8339 0.00273236
rclavicle 0 0 0
rhumerus -37.5076 12.7826 -93.511
rradius 61.0468 -0 0
rwrist 9.17864 0 0
rhand -9.52714 -19.5441 -0.00597039
rfingers 0 -0 0
rthumb 16.4388 -48.8646 -0.00505303
375
root 6.1459 16.5147 -15.749 9.35673 -17.8365 -6.24877
lfemur -45.2437 22.0405 -13.0744
ltibia 64.5634 -0 0
lfoot -10.0033 -0.543705 0.042601
ltoes 13.6998 -0 0
rfemur -23.5539 -2.947 31.2056
rtibia 41.2463 -0 0
rfoot -21.637 0.617926 -5.18048e-06
rtoes 17.7623 -0 0
lowerback 5.16645 1.75562 3.49546
upperback 2.60018 2.48693 0.959421
thorax -0.104628 1.26248 -1.09608
lowerneck -7.75315 -1.20396 3.08183
upperneck -0.55126 -1.92792 2.10703
head 1.11577 -0.927561 0.0748466
lclavicle 0 0 0
lhumerus -40.2305 -22.9321 94.6252
lradius 56.1801 -0 0
lwrist 18.9421 0 0
lhand -21.4612 2.73564 0.00347398
lfingers 0 -0 0
lthumb 4.92905 32.6574 0.00327884
rclavicle 0 0 0
rhumerus -37.6428 13.0825 -93.6237
rradius 60.4238 -0 0
rwrist 9.39599 0 0
rhand -9.85444 -19.335 -0.00716452
rfingers 0 -0 0
rthumb 16.1236 -48.6809 -0.00606368
376
root 6.09847 16.5218 -15.6119 9.39999 -18.5966 -6.3914
lfemur -45.4973 21.5601 -13.2951
ltibia 61.5449 -0 0
lfoot -9.52477 0.306645 0.042601
ltoes 13.6186 -0 0
rfemur -22.6486 -2.32513 31.2385
rtibia 40.7968 -0 0
rfoot -21.8823 0.618128 -5.18048e-06
rtoes 17.847 -0 0
lowerback 5.12266 1.92722 3.60103
upperback 2.56911 2.71808 0.895886
thorax -0.0935864 1.37901 -1.2297
lowerneck -7.65716 -1.12434 3.23295
upperneck -0.448571 -1.83242 2.04202
head 1.13049 -0.879593 0.0327807
lclavicle 0 0 0
lhumerus -40.1118 -22.8655 94.2981
lradius 55.8354 -0 0
lwrist 18.5416 0 0
lhand -21.6449 2.5551 0.00347398
lfingers 0 -0 0
lthumb 4.75163 32.4809 0.00327884
rclavicle 0 0 0
rhumerus -37.7787 13.3821 -93.7372
rradius 59.8008 -0 0
rwrist 9.61335 0 0
rhand -10.1817 -19.126 -0.00716452
rfingers 0 -0 0
rthumb 15.8084 -48.4971 -0.00606368
377
root 6.05105 16.5288 -15.4748 9.44546 -19.3567 -6.53528
lfemur -45.7481 21.0788 -13.5128
ltibia 58.5263 -0 0
lfoot -9.04629 1.15697 0.0354991
ltoes 13.5374 -0 0
rfemur -21.7432 -1.70385 31.2813
rtibia 40.3474 -0 0
rfoot -22.1275 0.61833 -4.31705e-06
rtoes 17.9317 -0 0
lowerback 5.07918 2.0989 3.70648
upperback 2.53778 2.94919 0.832212
thorax -0.0828158 1.49557 -1.3633
lowerneck -7.56097 -1.04499 3.38421
upperneck -0.345996 -1.73681 1.97718
head 1.14518 -0.831615 -0.00927235
lclavicle 0 0 0
lhumerus -39.9936 -22.7982 93.9713
lradius 55.4906 -0 0
lwrist 18.1411 0 0
lhand -21.8287 2.37457 0.00289498
lfingers 0 -0 0
lthumb 4.5742 32.3044 0.00273236
rclavicle 0 0 0
rhumerus -37.9154 13.6815 -93.8516
rradius 59.1778 -0 0
rwrist 9.8307 0 0
rhand -10.509 -18.9169 -0.00597039
rfingers 0 -0 0
rthumb 15.4932 -48.3134 -0.00505303
378
root 6.00363 16.5359 -15.3378 9.49318 -20.1167 -6.68049
lfemur -45.9961 20.5967 -13.7275
ltibia 55.5078 -0 0
lfoot -8.56796 2.0072 0.0212974
ltoes 13.4561 -0 0
rfemur -20.8377 -1.08333 31.3338
rtibia 39.8979 -0 0
rfoot -22.3728 0.618531 -2.59021e-06
rtoes 18.0164 -0 0
lowerback 5.03602 2.27066 3.81181
upperback 2.50619 3.18027 0.768398
thorax -0.0723165 1.61215 -1.49689
lowerneck -7.46457 -0.965885 3.53559
upperneck -0.243534 -1.64108 1.91252
head 1.15983 -0.783625 -0.0513126
lclavicle 0 0 0
lhumerus -39.8759 -22.7304 93.6449
lradius 55.1459 -0 0
lwrist 17.7407 0 0
lhand -22.0124 2.19404 0.00173697
lfingers 0 -0 0
lthumb 4.39678 32.128 0.00163941
rclavicle 0 0 0
rhumerus -38.053 13.9807 -93.9669
rradius 58.5549 -0 0
rwrist 10.048 0 0
rhand -10.8363 -18.7079 -0.00358218
rfingers 0 -0 0
rthumb 15.1781 -48.1297 -0.00303178
379
root 5.95621 16.5429 -15.2007 9.54319 -20.8765 -6.8271
lfemur -46.2414 20.1137 -13.9394
ltibia 52.4892 0 0
lfoot -8.08989 2.85728 0
ltoes 13.3749 0 0
rfemur -19.9317 -0.463717 31.3962
rtibia 39.4485 0 0
rfoot -22.618 0.618733 0
rtoes 18.1011 0 0
lowerback 4.99316 2.4425 3.91702
upperback 2.47433 3.41131 0.704442
thorax -0.0620885 1.72875 -1.63046
lowerneck -7.36796 -0.887037 3.6871
upperneck -0.141185 -1.54524 1.84803
head 1.17445 -0.735625 -0.0933401
lclavicle 7.55382e-15 -4.37326e-15 0
lhumerus -39.7586 -22.6619 93.3187
lradius 54.8011 0 0
lwrist 17.3402 0 0
lhand -22.1962 2.01352 0
lfingers 7.12502 0 0
lthumb 4.21936 31.9515 0
rclavicle 7.55382e-15 -4.37326e-15 0
rhumerus -38.1913 14.2795 -94.0831
rradius 57.9319 0 0
rwrist 10.2654 0 0
rhand -11.1636 -18.4989 0
rfingers 7.12502 0 0
rthumb 14.8629 -767.946 0
380
root 5.90484 16.5401 -15.048 9.45974 -21.3436 -6.94755
lfemur -45.3262 18.4244 -12.9812
ltibia 49.9755 -0 0
lfoot -7.95742 4.40432 0.0107541
ltoes 13.5634 -0 0
rfemur -18.9798 -0.418036 31.4545
rtibia 39.1904 -0 0
rfoot -22.8371 0.577133 0.000477295
rtoes 17.8984 -0 0
lowerback 4.84261 2.52126 4.01979
upperback 2.41746 3.51552 0.665445
thorax -0.020604 1.7819 -1.72448
lowerneck -7.23669 -0.838669 3.82292
upperneck 0.00821088 -1.48971 1.82479
head 1.19932 -0.705283 -0.121478
lclavicle -0 0 0
lhumerus -39.9635 -22.5058 93.2204
lradius 54.6628 -0 0
lwrist 17.4805 0 0
lhand -21.5367 2.35929 0.0119466
lfingers 0 -0 0
lthumb 4.85604 32.2778 0.0108833
rclavicle -0 0 0
rhumerus -38.5308 14.4775 -94.1793
rradius 57.7244 -0 0
rwrist 10.3334 0 0
rhand -11.4948 -18.646 0.00255171
rfingers 0 -0 0
rthumb 14.5437 -48.1147 0.00281995
381
root 5.85346 16.5372 -14.8954 9.37708 -21.8109 -7.06766
lfemur -44.4491 16.7212 -12.0602
ltibia 47.4618 -0 0
lfoot -7.82471 5.95138 0.0179279
ltoes 13.7518 -0 0
rfemur -18.0279 -0.373331 31.5136
rtibia 38.9323 -0 0
rfoot -23.0562 0.535531 0.000795496
rtoes 17.6957 -0 0
lowerback 4.6922 2.6003 4.12235
upperback 2.36052 3.61969 0.62634
thorax 0.0207944 1.83512 -1.81847
lowerneck -7.1053 -0.790612 3.95886
upperneck 0.157581 -1.43411 1.80169
head 1.22417 -0.674929 -0.149602
lclavicle -0 0 0
lhumerus -40.1684 -22.3499 93.1216
lradius 54.5245 -0 0
lwrist 17.6207 0 0
lhand -20.8771 2.70518 0.019912
lfingers 0 -0 0
lthumb 5.49278 32.6042 0.0181398
rclavicle -0 0 0
rhumerus -38.8709 14.675 -94.2767
rradius 57.5169 -0 0
rwrist 10.4014 0 0
rhand -11.8261 -18.7931 0.00425291
rfingers 0 -0 0
rthumb 14.2245 -48.2834 0.00469998
382
root 5.80209 16.5344 -14.7427 9.2952 -22.2784 -7.18744
lfemur -43.6079 15.005 -11.1741
ltibia 44.9481 -0 0
lfoot -7.69185 7.49845 0.0215161
ltoes 13.9403 -0 0
rfemur -17.076 -0.329614 31.5735
rtibia 38.6742 -0 0
rfoot -23.2753 0.493928 0.000954597
rtoes 17.493 -0 0
lowerback 4.54192 2.6796 4.22471
upperback 2.3035 3.72382 0.587127
thorax 0.0621066 1.88841 -1.91242
lowerneck -6.97381 -0.742867 4.0949
upperneck 0.306924 -1.37846 1.77874
head 1.249 -0.644562 -0.177713
lclavicle -0 0 0
lhumerus -40.3733 -22.1944 93.0223
lradius 54.3862 -0 0
lwrist 17.761 0 0
lhand -20.2175 3.05114 0.0238951
lfingers 0 -0 0
lthumb 6.12955 32.9307 0.0217683
rclavicle -0 0 0
rhumerus -39.2116 14.8719 -94.3755
rradius 57.3094 -0 0
rwrist 10.4694 0 0
rhand -12.1573 -18.9403 0.00510353
rfingers 0 -0 0
rthumb 13.9053 -48.4521 0.00564001
383
root 5.75071 16.5315 -14.5901 9.2141 -22.746 -7.3069
lfemur -42.8005 13.2768 -10.3206
ltibia 42.4344 -0 0
lfoot -7.55895 9.04553 0.0215161
ltoes 14.1287 -0 0
rfemur -16.124 -0.286897 31.634
rtibia 38.4162 -0 0
rfoot -23.4945 0.452324 0.000954597
rtoes 17.2904 -0 0
lowerback 4.39177 2.75916 4.32687
upperback 2.2464 3.82791 0.547805
thorax 0.103333 1.94177 -2.00634
lowerneck -6.8422 -0.695435 4.23105
upperneck 0.456242 -1.32274 1.75594
head 1.27383 -0.614184 -0.20581
lclavicle -0 0 0
lhumerus -40.5784 -22.0393 92.9225
lradius 54.248 -0 0
lwrist 17.9012 0 0
lhand -19.5578 3.39712 0.0238951
lfingers 0 -0 0
lthumb 6.76632 33.2572 0.0217683
rclavicle -0 0 0
rhumerus -39.5531 15.0683 -94.4756
rradius 57.102 -0 0
rwrist 10.5374 0 0
rhand -12.4885 -19.0874 0.00510353
rfingers 0 -0 0
rthumb 13.586 -48.6209 0.00564001
384
root 5.69934 16.5287 -14.4374 9.13379 -23.2138 -7.42606
lfemur -42.0247 11.5372 -9.49775
ltibia 39.9207 -0 0
lfoot -7.42609 10.5926 0.0179279
ltoes 14.3172 -0 0
rfemur -15.172 -0.245191 31.6953
rtibia 38.1581 -0 0
rfoot -23.7136 0.410721 0.000795496
rtoes 17.0877 -0 0
lowerback 4.24176 2.839 4.42883
upperback 2.18922 3.93196 0.508375
thorax 0.144472 1.99519 -2.10022
lowerneck -6.71048 -0.648316 4.36731
upperneck 0.605535 -1.26697 1.73328
head 1.29863 -0.583793 -0.233894
lclavicle -0 0 0
lhumerus -40.7835 -21.8845 92.8222
lradius 54.1097 -0 0
lwrist 18.0415 0 0
lhand -18.8982 3.74308 0.019912
lfingers 0 -0 0
lthumb 7.40309 33.5837 0.0181398
rclavicle -0 0 0
rhumerus -39.8952 15.264 -94.5769
rradius 56.8945 -0 0
rwrist 10.6054 0 0
rhand -12.8197 -19.2346 0.00425291
rfingers 0 -0 0
rthumb 13.2668 -48.7896 0.00469998
385
root 5.64796 16.5258 -14.2848 9.05425 -23.6817 -7.54492
lfemur -41.2788 9.78718 -8.70356
ltibia 37.407 -0 0
lfoot -7.29338 12.1397 0.0107541
ltoes 14.5056 -0 0
rfemur -14.2199 -0.204509 31.7572
rtibia 37.9 -0 0
rfoot -23.9327 0.369119 0.000477295
rtoes 16.885 -0 0
lowerback 4.09187 2.9191 4.53059
upperback 2.13196 4.03598 0.468835
thorax 0.185526 2.04868 -2.19406
lowerneck -6.57865 -0.60151 4.50367
upperneck 0.754802 -1.21114 1.71077
head 1.32342 -0.55339 -0.261965
lclavicle -0 0 0
lhumerus -40.9887 -21.73 92.7215
lradius 53.9714 -0 0
lwrist 18.1817 0 0
lhand -18.2386 4.08897 0.0119466
lfingers 0 -0 0
lthumb 8.03983 33.9101 0.0108833
rclavicle -0 0 0
rhumerus -40.2379 15.4592 -94.6796
rradius 56.687 -0 0
rwrist 10.6734 0 0
rhand -13.151 -19.3817 0.00255171
rfingers 0 -0 0
rthumb 12.9476 -48.9583 0.00281995
386
root 5.59659 16.523 -14.1321 8.97549 -24.1498 -7.6635
lfemur -40.561 8.02731 -7.93625
ltibia 34.8933 0 0
lfoot -7.16091 13.6867 0
ltoes 14.6941 0 0
rfemur -13.2678 -0.164862 31.8198
rtibia 37.6419 0 0
rfoot -24.1518 0.327519 0
rtoes 16.6823 0 0
lowerback 3.94212 2.99947 4.63214
upperback 2.07462 4.13995 0.429186
thorax 0.226493 2.10224 -2.28787
lowerneck -6.44671 -0.555018 4.64014
upperneck 0.904044 -1.15525 1.6884
head 1.3482 -0.522975 -0.290023
lclavicle 9.73051e-14 4.37326e-15 0
lhumerus -41.1939 -21.5758 92.6202
lradius 53.8331 0 0
lwrist 18.322 0 0
lhand -17.5791 4.43474 0
lfingers 7.12502 0 0
lthumb 8.67651 34.2364 0
rclavicle 9.73051e-14 4.37326e-15 0
rhumerus -40.5814 15.6538 -94.7836
rradius 56.4795 0 0
rwrist 10.7414 0 0
rhand -13.4822 -19.5288 0
rfingers 7.12502 0 0
rthumb 12.6284 -769.127 0
387
root 5.54369 16.5141 -13.9834 8.77219 -24.6358 -7.62772
lfemur -39.9431 6.92078 -7.43437
ltibia 34.9036 -0 0
lfoot -7.01676 13.6755 -8.46404e-05
ltoes 13.3733 -0 0
rfemur -13.2191 -0.925104 31.6762
rtibia 38.9821 -0 0
rfoot -23.7277 0.370258 0.000949304
rtoes 15.3929 -0 0
lowerback 3.86968 3.08567 4.45839
upperback 2.02173 4.24685 0.381494
thorax 0.209607 2.15367 -2.24048
lowerneck -6.37382 -0.507116 4.75372
upperneck 1.08662 -1.10348 1.74663
head 1.39512 -0.491197 -0.289747
lclavicle -0 0 0
lhumerus -41.451 -21.5351 92.7728
lradius 53.6782 -0 0
lwrist 18.3661 0 0
lhand -17.0033 4.54404 0.00329622
lfingers 0 -0 0
lthumb 9.23189 34.3172 0.00235101
rclavicle -0 0 0
rhumerus -41.0198 15.3885 -94.686
rradius 56.6989 -0 0
rwrist 10.6232 0 0
rhand -13.6499 -19.3008 -0.00200216
rfingers 0 -0 0
rthumb 12.4667 -48.9084 -0.00185074
